<svg id="zia" xmlns="http://www.w3.org/2000/svg" xmlns:xlink="http://www.w3.org/1999/xlink" viewBox="0 0 1920 600"><defs><style>.cls-1,.cls-3{fill:none;}.cls-2{clip-path:url(#clip-path);}.cls-3{stroke:#e5d6c6;stroke-miterlimit:10;stroke-width:20px;}</style><clipPath id="clip-path"><rect class="cls-1" width="1920" height="600"/></clipPath></defs><g class="cls-2"><line class="cls-3" x1="652.92" y1="159.16" x2="835.5" y2="-23.42"/><line class="cls-3" x1="604.79" y1="105.32" x2="844.8" y2="-134.69"/><line class="cls-3" x1="536.56" y1="75.97" x2="748.52" y2="-135.98"/><line class="cls-3" x1="686.71" y1="227.92" x2="1010.43" y2="-95.8"/><line class="cls-3" x1="599" y1="434.69" x2="781.58" y2="617.26"/><line class="cls-3" x1="663.07" y1="380.16" x2="903.08" y2="620.17"/><line class="cls-3" x1="689.22" y1="299.78" x2="901.17" y2="511.74"/><line class="cls-3" x1="524.49" y1="465.28" x2="848.2" y2="789"/><circle class="cls-3" cx="490.17" cy="270.35" r="200.02"/><line class="cls-3" x1="388.26" y1="99.31" x2="205.68" y2="-83.26"/><line class="cls-3" x1="324.19" y1="153.84" x2="84.18" y2="-86.17"/><line class="cls-3" x1="298.04" y1="234.22" x2="62.84" y2="-0.99"/><line class="cls-3" x1="462.77" y1="68.72" x2="139.06" y2="-255"/><line class="cls-3" x1="330.61" y1="386.98" x2="87.3" y2="630.3"/><line class="cls-3" x1="378.74" y1="440.82" x2="138.73" y2="680.83"/><line class="cls-3" x1="446.97" y1="470.17" x2="235.02" y2="682.12"/><line class="cls-3" x1="296.82" y1="318.22" x2="95.02" y2="520.02"/></g></svg>